<?xml version="1.0" standalone="no"?>
<!DOCTYPE svg PUBLIC "-//W3C//DTD SVG 20010904//EN"
 "http://www.w3.org/TR/2001/REC-SVG-20010904/DTD/svg10.dtd">
<svg version="1.0" xmlns="http://www.w3.org/2000/svg"
 width="123.000000pt" height="128.000000pt" viewBox="0 0 1237.000000 1280.000000"
 preserveAspectRatio="xMidYMid meet">
<metadata>
Created by potrace 1.15, written by Peter Selinger 2001-2017
</metadata>
<g transform="translate(0.000000,1280.000000) scale(0.100000,-0.100000)"
fill="#FF0000" stroke="none">
<path d="M5583 12070 c-499 -33 -1026 -122 -1478 -251 -1399 -397 -2497 -1190
-3052 -2204 -199 -363 -322 -756 -364 -1164 -15 -148 -6 -551 16 -686 113
-704 441 -1322 995 -1875 349 -349 754 -640 1249 -898 79 -42 157 -89 172
-106 42 -46 116 -200 141 -291 28 -106 30 -353 5 -495 -72 -392 -224 -788
-536 -1395 -111 -214 -179 -339 -613 -1115 -91 -162 -195 -353 -233 -423 -72
-138 -75 -150 -41 -229 l16 -36 51 21 c67 29 149 114 534 562 569 662 1131
1292 1143 1280 4 -4 35 17 92 62 70 55 186 148 190 152 3 4 39 35 80 71 41 35
77 67 80 70 3 3 28 25 55 49 28 25 95 85 149 135 54 50 108 99 120 109 12 10
55 49 96 86 543 493 914 698 1329 738 36 3 75 7 86 8 11 1 58 3 104 4 138 2
85 12 -106 21 l-178 8 175 -2 c248 -4 655 10 858 29 95 9 178 15 185 12 6 -2
-49 -9 -123 -16 -158 -14 -182 -18 -120 -20 42 -1 232 15 290 24 14 2 54 7 90
10 36 4 72 8 80 10 8 1 40 6 70 10 30 4 64 9 75 12 11 2 38 6 60 9 22 2 47 6
55 7 8 2 38 7 65 12 40 6 189 36 300 61 11 2 33 7 50 10 16 3 63 14 105 25 41
12 82 22 90 24 8 2 42 11 75 20 33 10 74 21 90 25 93 25 300 95 446 151 42 16
78 29 82 29 13 0 291 122 411 181 427 208 747 414 1079 692 326 273 639 632
816 937 24 41 54 91 67 110 32 49 135 268 177 375 56 143 124 362 143 460 4
22 8 42 9 45 0 3 5 28 10 55 4 28 9 55 10 60 27 130 40 536 23 700 -13 120
-29 239 -34 244 -2 3 -2 -35 0 -85 l5 -89 -9 78 c-190 1631 -1714 2992 -3860
3447 -265 56 -513 93 -845 126 -188 18 -897 27 -1102 14z m5824 -3777 c-2 -21
-4 -4 -4 37 0 41 2 58 4 38 2 -21 2 -55 0 -75z m0 -290 c-2 -21 -4 -6 -4 32 0
39 2 55 4 38 2 -18 2 -50 0 -70z m-10 -135 c-2 -13 -4 -3 -4 22 0 25 2 35 4
23 2 -13 2 -33 0 -45z m-10 -70 c-3 -7 -5 -2 -5 12 0 14 2 19 5 13 2 -7 2 -19
0 -25z m-10 -80 c-3 -7 -5 -2 -5 12 0 14 2 19 5 13 2 -7 2 -19 0 -25z m-10
-50 c-3 -8 -6 -5 -6 6 -1 11 2 17 5 13 3 -3 4 -12 1 -19z m-10 -60 c-3 -8 -6
-5 -6 6 -1 11 2 17 5 13 3 -3 4 -12 1 -19z m-3500 -3114 c-3 -3 -12 -4 -19 -1
-8 3 -5 6 6 6 11 1 17 -2 13 -5z m-80 -20 c-3 -3 -12 -4 -19 -1 -8 3 -5 6 6 6
11 1 17 -2 13 -5z m-80 -20 c-3 -3 -12 -4 -19 -1 -8 3 -5 6 6 6 11 1 17 -2 13
-5z m-84 -21 c-7 -2 -21 -2 -30 0 -10 3 -4 5 12 5 17 0 24 -2 18 -5z m-56 -9
c-3 -3 -12 -4 -19 -1 -8 3 -5 6 6 6 11 1 17 -2 13 -5z m-62 -14 c-16 -4 -39
-8 -50 -8 -16 0 -15 2 5 8 14 4 36 8 50 8 22 0 22 -1 -5 -8z m-82 -17 c-7 -2
-19 -2 -25 0 -7 3 -2 5 12 5 14 0 19 -2 13 -5z m-68 -13 c-16 -4 -43 -8 -60
-8 -29 1 -29 1 5 8 19 4 46 7 60 8 22 0 22 -1 -5 -8z m-120 -20 c-16 -4 -43
-8 -60 -8 -29 1 -29 1 5 8 19 4 46 7 60 8 22 0 22 -1 -5 -8z m-107 -17 c-10
-2 -26 -2 -35 0 -10 3 -2 5 17 5 19 0 27 -2 18 -5z m-59 -7 c-2 -2 -35 -6 -74
-9 -45 -3 -58 -3 -35 2 37 9 116 14 109 7z m-3334 -1431 c-70 -74 -130 -135
-133 -135 -4 0 16 24 43 53 97 102 210 217 213 217 2 0 -53 -61 -123 -135z"/>
<path d="M11361 8744 c0 -11 3 -14 6 -6 3 7 2 16 -1 19 -3 4 -6 -2 -5 -13z"/>
<path d="M11372 8680 c0 -14 2 -19 5 -12 2 6 2 18 0 25 -3 6 -5 1 -5 -13z"/>
<path d="M11382 8625 c0 -16 2 -22 5 -12 2 9 2 23 0 30 -3 6 -5 -1 -5 -18z"/>
<path d="M6497 4273 c18 -2 50 -2 70 0 21 2 7 4 -32 4 -38 0 -55 -2 -38 -4z"/>
<path d="M6203 4263 c15 -2 37 -2 50 0 12 2 0 4 -28 4 -27 0 -38 -2 -22 -4z"/>
<path d="M6318 4263 c23 -2 61 -2 85 0 23 2 4 4 -43 4 -47 0 -66 -2 -42 -4z"/>
</g>
</svg>
